# xmcd CD database file
#
# Track frame offsets:
#	150
#	11710
#	24137
#	36835
#	53060
#	61472
#	73550
#	85625
#	96260
#	104935
#	118037
#	128975
#	143712
#	158400
#	170475
#	180947
#	191225
#	198475
#	209662
#	225487
#	238385
#	254640
#	264422
#	268390
#	276795
#	289830
#
# Disc length: 4035 seconds
#
# Revision: 0
# Processed by: cddbd v1.5.1PL2 Copyright (c) Steve Scherf et al.
# Submitted via: Feurio! 1.68 - http://www.feurio.com
#
DISCID=890fc11a
DTITLE=Elvis Presley - Amazing Grace (2)
DYEAR=1994
DGENRE=
TTITLE0=We Call On Him
TTITLE1=You'll Never Walk Alone
TTITLE2=Only Believe
TTITLE3=Amazing Grace
TTITLE4=Miracle Of The Rosary
TTITLE5=Lead Me, Guide Me
TTITLE6=He Touched Me
TTITLE7=I've Got Confidence
TTITLE8=An Evening Prayer
TTITLE9=Seeing Is Believing
TTITLE10=A Thing Called Love
TTITLE11=Put Your Hand In The Hand
TTITLE12=Reach Out To Jesus
TTITLE13=He Is My Everything
TTITLE14=There Is No God But God
TTITLE15=I, John
TTITLE16=Bosom Of Abraham
TTITLE17=Help Me
TTITLE18=If That Isn't Love
TTITLE19=Why Me Lord (Live Version)
TTITLE20=How Great Thou Art (Live Version)
TTITLE21=I, John (Previously Unreleased)
TTITLE22=Bosom Of Abraham (Previously Unreleased)
TTITLE23=You Better Run (Previously Unreleased)
TTITLE24=Lead Me, Guide Me (Previously Unreleased)
TTITLE25=Turn Your Eyes Upon Jesus - Nearer My God To Thee (Previously 
TTITLE25=Unreleased)
EXTD=
EXTT0=
EXTT1=
EXTT2=
EXTT3=
EXTT4=
EXTT5=
EXTT6=
EXTT7=
EXTT8=
EXTT9=
EXTT10=
EXTT11=
EXTT12=
EXTT13=
EXTT14=
EXTT15=
EXTT16=
EXTT17=
EXTT18=
EXTT19=
EXTT20=
EXTT21=
EXTT22=
EXTT23=
EXTT24=
EXTT25=
PLAYORDER=
